SplineFontDB: 3.0
FontName: TechnaSans-Regular
FullName: Techna Sans Regular
FamilyName: Techna Sans
Weight: Regular
Copyright: Copyright (c) 2019, Carl Enlund
UComments: "2019-5-11: Created with FontForge (http://fontforge.org)"
Version: 001.000
ItalicAngle: 0
UnderlinePosition: -100
UnderlineWidth: 50
Ascent: 800
Descent: 200
InvalidEm: 0
LayerCount: 3
Layer: 0 0 "Back" 1
Layer: 1 0 "Fore" 0
Layer: 2 0 "Thin" 1
XUID: [1021 637 837473831 1446149]
FSType: 0
OS2Version: 0
OS2_WeightWidthSlopeOnly: 0
OS2_UseTypoMetrics: 1
CreationTime: 1557605594
ModificationTime: 1559228248
PfmFamily: 17
TTFWeight: 400
TTFWidth: 5
LineGap: 90
VLineGap: 0
OS2TypoAscent: 0
OS2TypoAOffset: 1
OS2TypoDescent: 0
OS2TypoDOffset: 1
OS2TypoLinegap: 0
OS2WinAscent: 0
OS2WinAOffset: 1
OS2WinDescent: 0
OS2WinDOffset: 1
HheadAscent: 0
HheadAOffset: 1
HheadDescent: 0
HheadDOffset: 1
OS2Vendor: 'PfEd'
Lookup: 1 0 0 "'ss01' Style Set 1 in Latin lookup 1" { "'ss01' Style Set 1 in Latin lookup 1-1"  } ['ss01' ('DFLT' <'dflt' > 'latn' <'dflt' > ) ]
Lookup: 1 0 0 "'ss02' Style Set 2 in Latin lookup 2" { "'ss02' Style Set 2 in Latin lookup 2-1"  } ['ss02' ('DFLT' <'dflt' > 'latn' <'dflt' > ) ]
Lookup: 4 0 1 "'liga' Standard Ligatures in Latin lookup 0" { "'liga' Standard Ligatures in Latin lookup 0-1"  } ['liga' ('DFLT' <'dflt' > 'latn' <'dflt' > ) ]
Lookup: 258 0 0 "'kern' Horizontal Kerning in Latin lookup 0" { "'kern' Horizontal Kerning in Latin lookup 0-1" [150,15,0] } ['kern' ('DFLT' <'dflt' > 'latn' <'dflt' > ) ]
MarkAttachClasses: 1
DEI: 91125
LangName: 1033
Encoding: UnicodeFull
UnicodeInterp: none
NameList: AGL For New Fonts
DisplaySize: -96
AntiAlias: 1
FitToEm: 0
WinInfo: 114 19 7
BeginPrivate: 0
EndPrivate
Grid
-1000 688 m 0
 2000 688 l 1024
-976 -165 m 0
 2024 -165 l 1024
-1021.83337402 1300 m 0
 -1021.83337402 -700 l 1024
-1000 503 m 0
 2000 503 l 1024
-1000 718 m 0
 2000 718 l 1024
EndSplineSet
AnchorClass2: "Cedilla"""  "Top""" 
BeginChars: 1114116 193

StartChar: D
Encoding: 68 68 0
Width: 692
VWidth: 0
Flags: HMW
LayerCount: 3
Fore
SplineSet
316 121 m 1
 316 0 l 1
 142 0 l 1
 142 121 l 1
 316 121 l 1
326 688 m 1
 320 567 l 1
 142 567 l 1
 142 688 l 1
 326 688 l 1
60 0 m 1
 60 688 l 1
 194 688 l 1
 194 0 l 1
 60 0 l 1
326 688 m 1
 551.058104436 688 672 540.865234375 672 350 c 3
 672 152.017578125 547.621594927 0 316 0 c 1
 316 121 l 1
 465.310105847 121 536 221.337890625 536 346 c 3
 536 468.446289062 466.619672463 567 320 567 c 1
 326 688 l 1
EndSplineSet
EndChar

StartChar: E
Encoding: 69 69 1
Width: 551
VWidth: 0
Flags: HMW
AnchorPoint: "Top" 298 744 basechar 0
LayerCount: 3
Fore
SplineSet
125 412.916992188 m 1
 455 412.916992188 l 1
 423 293 l 1
 123 292.916992188 l 1
 125 412.916992188 l 1
125 122 m 1
 513 122 l 1
 546 0 l 1
 125 0 l 1
 125 122 l 1
125 688 m 1
 525 688 l 1
 493 566 l 1
 125 566 l 1
 125 688 l 1
60 0 m 1
 60 688 l 1
 194 688 l 1
 194 0 l 1
 60 0 l 1
EndSplineSet
EndChar

StartChar: C
Encoding: 67 67 2
Width: 614
VWidth: 0
Flags: HMW
AnchorPoint: "Cedilla" 388 0 basechar 0
LayerCount: 3
Fore
SplineSet
561 545 m 1
 529 556 480 570 413 570 c 3
 302.297297297 570 157 519.6925825 157 347 c 3
 157 177.723848545 289.494382023 113 421 113 c 3
 485 113 547 127 589 146 c 1
 589 18 l 1
 556.762105083 4.037109375 492.828382555 -11 413 -11 c 3
 237.42578125 -11 20 72.3076171875 20 343 c 3
 20 629.174804688 263.901367188 697 432 697 c 3
 507.048549107 697 567.306989397 681.842329546 594 673 c 1
 561 545 l 1
EndSplineSet
EndChar

StartChar: G
Encoding: 71 71 3
Width: 700
VWidth: 0
Flags: HMW
LayerCount: 3
Fore
SplineSet
594 541 m 1
 568 550.310344828 497 571 420 571 c 3
 305.631090757 571 157 523.383789062 157 347 c 7
 157 180 282.211728553 112 431 112 c 3
 493 112 561.653846154 128.593406593 594 145 c 1
 642 18 l 1
 597 4.03703703704 511 -11 427 -11 c 3
 226.551980198 -11 20 75.7607421875 20 343 c 3
 20 630 266.224609375 697 431 697 c 3
 527.097421875 697 594.650429688 680 627 670 c 1
 594 541 l 1
513 18 m 1
 513 350 l 1
 642 350 l 1
 642 18 l 1
 513 18 l 1
374 400 m 1
 642 400 l 1
 642 280 l 1
 342 280 l 1
 374 400 l 1
EndSplineSet
EndChar

StartChar: T
Encoding: 84 84 4
Width: 563
VWidth: 0
Flags: HMW
LayerCount: 3
Fore
SplineSet
559 688 m 1
 559 566 l 5
 -4 566 l 5
 28 688 l 1
 559 688 l 1
224 0 m 1
 224 639 l 1
 358 639 l 1
 358 0 l 1
 224 0 l 1
EndSplineSet
EndChar

StartChar: H
Encoding: 72 72 5
Width: 660
VWidth: 0
Flags: HMW
LayerCount: 3
Fore
SplineSet
120 413.916992188 m 1
 540 413.916992188 l 1
 540 292 l 1
 120 291.916992188 l 1
 120 413.916992188 l 1
466 0 m 1
 466 688 l 1
 600 688 l 1
 600 0 l 1
 466 0 l 1
60 0 m 1
 60 688 l 1
 194 688 l 1
 194 0 l 1
 60 0 l 1
EndSplineSet
EndChar

StartChar: N
Encoding: 78 78 6
Width: 664
VWidth: 0
Flags: HMW
AnchorPoint: "Top" 332 744 basechar 0
LayerCount: 3
Fore
SplineSet
108 654 m 5
 193 688 l 5
 223 688 l 5
 570 34 l 5
 486 0 l 5
 456 0 l 5
 108 654 l 5
472 0 m 5
 472 688 l 5
 604 688 l 5
 604 0 l 5
 472 0 l 5
60 0 m 5
 60 688 l 5
 192 688 l 5
 192 0 l 5
 60 0 l 5
EndSplineSet
EndChar

StartChar: A
Encoding: 65 65 7
Width: 633
VWidth: 0
Flags: HMW
AnchorPoint: "Top" 317 744 basechar 0
LayerCount: 3
Fore
SplineSet
489 0 m 1
 284 688 l 1
 419 688 l 1
 628 0 l 1
 489 0 l 1
5 0 m 1
 219 688 l 1
 348 688 l 1
 140 0 l 1
 5 0 l 1
116 268 m 1
 518 268 l 1
 518 154 l 1
 116 154 l 1
 116 268 l 1
EndSplineSet
EndChar

StartChar: B
Encoding: 66 66 8
Width: 589
VWidth: 0
Flags: HMW
LayerCount: 3
Fore
SplineSet
332 118 m 1
 338 0 l 1
 142 0 l 1
 142 118 l 1
 332 118 l 1
401 405 m 1
 401 291 l 1
 142 291 l 1
 142 405 l 1
 401 405 l 1
352 373 m 1
 480.846938776 373 559 294.446742869 559 196 c 3
 559 82.578680203 479.991500785 0 338 0 c 1
 332 118 l 1
 391.802684473 118 421 156.797219016 421 205 c 3
 421 252.6484375 391.802684473 291 332 291 c 1
 352 373 l 1
337 688 m 1
 325 568 l 1
 142 568 l 1
 142 688 l 1
 337 688 l 1
60 0 m 1
 60 688 l 1
 194 688 l 1
 194 0 l 1
 60 0 l 1
337 688 m 1
 470.01953125 688 540 606.537142857 540 512 c 3
 540 415.584072672 477.049180328 344 360 344 c 1
 325 405 l 1
 376.877823796 405 405 439.542691454 405 487 c 3
 405 533.903271484 376.877823796 568 325 568 c 1
 337 688 l 1
EndSplineSet
EndChar

StartChar: F
Encoding: 70 70 9
Width: 525
VWidth: 0
Flags: HMW
LayerCount: 3
Fore
SplineSet
125 406.916992188 m 1
 451 406.916992188 l 1
 419 286 l 1
 125 286 l 1
 125 406.916992188 l 1
  Spiro
    125 406.917 v
    451 406.917 v
    419 286 v
    125 286 v
    0 0 z
  EndSpiro
125 688 m 1
 525 688 l 1
 492 566 l 1
 125 566 l 1
 125 688 l 1
60 0 m 1
 60 688 l 1
 194 688 l 1
 194 0 l 1
 60 0 l 1
  Spiro
    60 0 v
    60 688 v
    194 688 v
    194 0 v
    0 0 z
  EndSpiro
EndSplineSet
EndChar

StartChar: I
Encoding: 73 73 10
Width: 264
VWidth: 0
Flags: HMW
AnchorPoint: "Top" 132 744 basechar 0
LayerCount: 3
Fore
SplineSet
65 0 m 1
 65 688 l 1
 199 688 l 1
 199 0 l 1
 65 0 l 1
EndSplineSet
EndChar

StartChar: L
Encoding: 76 76 11
Width: 517
VWidth: 0
Flags: HMW
LayerCount: 3
Fore
SplineSet
60 0 m 1
 60 688 l 1
 194 688 l 1
 194 0 l 1
 60 0 l 1
125 0 m 1
 125 122 l 5
 517 122 l 5
 486 0 l 1
 125 0 l 1
EndSplineSet
EndChar

StartChar: M
Encoding: 77 77 12
Width: 759
VWidth: 0
Flags: HMW
LayerCount: 3
Fore
SplineSet
565 0 m 1
 565 688 l 1
 699 688 l 1
 699 0 l 1
 565 0 l 1
331 253 m 1
 331 308 l 5
 535 688 l 1
 649 688 l 1
 435 253 l 1
 331 253 l 1
326 253 m 1
 107 688 l 1
 226 688 l 1
 430 315 l 5
 430 253 l 1
 326 253 l 1
60 0 m 1
 60 688 l 1
 194 688 l 1
 194 0 l 1
 60 0 l 1
EndSplineSet
EndChar

StartChar: O
Encoding: 79 79 13
Width: 788
VWidth: 0
Flags: HMW
AnchorPoint: "Top" 394 744 basechar 0
LayerCount: 3
Fore
SplineSet
394 705 m 3
 638.69140625 705 768 538.087009006 768 346 c 3
 768 151.690561148 638.69140625 -17 394 -17 c 3
 149.30859375 -17 20 151.690561148 20 346 c 3
 20 538.087009006 149.30859375 705 394 705 c 3
394 584 m 3
 237.926790097 584 156 468.999593099 156 346 c 3
 156 220.933025422 237.926790097 104 394 104 c 3
 550.073209903 104 632 220.933025422 632 346 c 3
 632 468.999593099 550.073209903 584 394 584 c 3
EndSplineSet
EndChar

StartChar: P
Encoding: 80 80 14
Width: 566
VWidth: 0
Flags: HMW
LayerCount: 3
Fore
SplineSet
324 381 m 5
 325 261 l 5
 142 261 l 1
 142 381 l 1
 324 381 l 5
331 688 m 5
 324 566 l 5
 142 566 l 1
 142 688 l 1
 331 688 l 5
60 0 m 1
 60 688 l 1
 194 688 l 1
 194 0 l 1
 60 0 l 1
331 688 m 5
 476.442223837 688 551 596.690501493 551 477 c 7
 551 354.114271831 474.379065328 261 325 261 c 5
 324 381 l 5
 388.069233905 381 416 421.958288434 416 475 c 7
 416 525.419433594 388.069233905 566 324 566 c 5
 331 688 l 5
EndSplineSet
EndChar

StartChar: Q
Encoding: 81 81 15
Width: 788
VWidth: 0
Flags: HMW
LayerCount: 3
Fore
SplineSet
641 -71 m 1
 362 239 l 1
 454 315 l 1
 733 5 l 1
 641 -71 l 1
EndSplineSet
Refer: 13 79 N 1 0 0 1 0 0 2
EndChar

StartChar: R
Encoding: 82 82 16
Width: 581
VWidth: 0
Flags: HMW
LayerCount: 3
Fore
SplineSet
367 383 m 1
 367 268 l 1
 142 268 l 1
 142 383 l 1
 367 383 l 1
332 688 m 1
 325 566 l 1
 142 566 l 1
 142 688 l 1
 332 688 l 1
60 0 m 1
 60 688 l 1
 194 688 l 1
 194 0 l 1
 60 0 l 1
332 688 m 1
 474.695601342 688 551 599.302439024 551 479 c 3
 551 360.708177649 478.213114755 268 311 268 c 5
 325 383 l 1
 388.372829189 383 416 423.522561961 416 476 c 3
 416 525.865373884 388.372829189 566 325 566 c 1
 332 688 l 1
402 0 m 1
 257 316 l 1
 404 316 l 1
 551 0 l 1
 402 0 l 1
EndSplineSet
EndChar

StartChar: U
Encoding: 85 85 17
Width: 630
VWidth: 0
Flags: HMW
AnchorPoint: "Top" 315 744 basechar 0
LayerCount: 3
Fore
SplineSet
192 242 m 2
 192 156.301843375 232.833736097 106 315 106 c 7
 397.166263903 106 438 156.301843375 438 242 c 2
 438 688 l 1
 572 688 l 1
 572 233 l 2
 572 78.4704163566 483.143341549 -17 315 -17 c 3
 146.856658451 -17 58 78.4704163567 58 233 c 2
 58 688 l 1
 192 688 l 1
 192 242 l 2
EndSplineSet
EndChar

StartChar: V
Encoding: 86 86 18
Width: 601
VWidth: 0
Flags: HMW
LayerCount: 3
Fore
SplineSet
260 0 m 5
 450 688 l 1
 593 688 l 1
 391 0 l 5
 260 0 l 5
206 0 m 5
 8 688 l 1
 155 688 l 1
 341 0 l 5
 206 0 l 5
EndSplineSet
EndChar

StartChar: Z
Encoding: 90 90 19
Width: 545
VWidth: 0
Flags: HMW
LayerCount: 3
Fore
SplineSet
21 24 m 1
 103 121 l 1
 545 121 l 1
 511 0 l 1
 21 0 l 1
 21 24 l 1
527 664 m 5
 444 567 l 5
 23 567 l 5
 57 688 l 5
 527 688 l 5
 527 664 l 5
21 24 m 1
 369 652 l 5
 527 664 l 5
 179 38 l 1
 21 24 l 1
EndSplineSet
EndChar

StartChar: W
Encoding: 87 87 21
Width: 923
VWidth: 0
Flags: HMW
LayerCount: 3
Fore
SplineSet
635 0 m 1
 763 688 l 1
 900 688 l 1
 758 0 l 1
 635 0 l 1
590 0 m 1
 414 688 l 1
 538 688 l 1
 715 0 l 1
 590 0 l 1
210 0 m 1
 389 688 l 1
 507 688 l 1
 328 0 l 1
 210 0 l 1
163 0 m 1
 23 688 l 1
 164 688 l 5
 290 0 l 1
 163 0 l 1
EndSplineSet
EndChar

StartChar: Y
Encoding: 89 89 22
Width: 565
VWidth: 0
Flags: HMW
AnchorPoint: "Top" 283 744 basechar 0
LayerCount: 3
Fore
SplineSet
216 0 m 1
 216 328 l 1
 350 328 l 1
 350 0 l 1
 216 0 l 1
224 250 m 1
 420 688 l 1
 568 688 l 1
 345 243 l 1
 224 250 l 1
219 241 m 1
 -3 688 l 1
 149 688 l 1
 345 253 l 1
 219 241 l 1
EndSplineSet
EndChar

StartChar: X
Encoding: 88 88 23
Width: 584
VWidth: 0
Flags: HMW
LayerCount: 3
Back
SplineSet
147 0 m 5
 -5 0 l 5
 425 688 l 5
 576 688 l 5
 147 0 l 5
434 0 m 5
 12 688 l 5
 168 688 l 5
 589 0 l 5
 434 0 l 5
EndSplineSet
Fore
SplineSet
147 0 m 1
 -5 0 l 1
 198.015625 355.854492188 l 1
 12 688 l 1
 168 688 l 1
 296.1953125 449.426757812 l 1
 425 688 l 1
 576 688 l 1
 386.020507812 357.194335938 l 1
 589 0 l 1
 434 0 l 1
 287.840820312 263.62109375 l 1
 147 0 l 1
EndSplineSet
EndChar

StartChar: S
Encoding: 83 83 24
Width: 505
VWidth: 0
Flags: HMW
LayerCount: 3
Fore
SplineSet
462 667 m 1
 431 542 l 1
 372 570 325 577 280 577 c 3
 212 577 169 554 169 502 c 3
 169 461 193 446 260 418 c 2
 318 394 l 2
 423 350 485 304 485 198 c 3
 485 61 392 -10 241 -10 c 3
 163 -10 91 9 42 39 c 1
 42 174 l 1
 102 133 177 109 250 109 c 3
 314 109 351 133 351 190 c 3
 351 228 321 246 247 277 c 2
 183 304 l 2
 101 339 35 376 35 499 c 3
 35 621 130 698 294 698 c 3
 355 698 423 686 462 667 c 1
EndSplineSet
EndChar

StartChar: K
Encoding: 75 75 25
Width: 598
VWidth: 0
Flags: HMW
LayerCount: 3
Fore
SplineSet
167 360 m 5
 334 360 l 5
 608 0 l 5
 438 0 l 5
 167 360 l 5
168 351 m 5
 433 688 l 5
 594 688 l 5
 329 351 l 5
 168 351 l 5
60 0 m 1
 60 688 l 1
 194 688 l 1
 194 0 l 1
 60 0 l 1
EndSplineSet
EndChar

StartChar: J
Encoding: 74 74 26
Width: 476
VWidth: 0
Flags: HMW
LayerCount: 3
Fore
SplineSet
354 688 m 1
 354 566 l 1
 53 566 l 5
 85 688 l 5
 354 688 l 1
35 149 m 1
 76.8218503937 126.768432617 113.955708662 115 163 115 c 3
 240.440077485 115 284 149 284 228 c 2
 284 688 l 1
 418 688 l 1
 418 217 l 2
 418 65 334.770156735 -9 174 -9 c 3
 125.782870679 -9 63.7590522496 2.42275705645 35 24 c 1
 35 149 l 1
EndSplineSet
EndChar

StartChar: o
Encoding: 111 111 27
Width: 588
VWidth: 0
Flags: HMW
AnchorPoint: "Top" 294 578 basechar 0
LayerCount: 3
Fore
SplineSet
294 518 m 3
 465.567074233 518 564 402 564 252 c 3
 564 101 465.567074233 -15 294 -15 c 3
 122.432925767 -15 24 101 24 252 c 3
 24 402 122.432925767 518 294 518 c 3
294 404 m 3
 202.461914062 404 154 334.093200279 154 252 c 3
 154 169.91354852 202.461914062 99 294 99 c 3
 385.538085938 99 434 169.91354852 434 252 c 3
 434 334.093200279 385.538085938 404 294 404 c 3
EndSplineSet
Layer: 2
SplineSet
294 504 m 3
 453.493835676 504 545 391.052631579 545 245 c 7
 545 97.9588014981 453.493835676 -15 294 -15 c 3
 134.506164324 -15 43 97.9588014981 43 245 c 3
 43 391.052631579 134.506164324 504 294 504 c 3
294 451 m 3
 167.154366629 451 100 356.257889852 100 245 c 3
 100 133.941859762 167.154366629 38 294 38 c 3
 420.845633371 38 488 133.941859762 488 245 c 7
 488 356.257889852 420.845633371 451 294 451 c 3
EndSplineSet
EndChar

StartChar: i
Encoding: 105 105 28
Width: 237
VWidth: 0
Flags: HMW
LayerCount: 3
Fore
SplineSet
50 579 m 5
 50 711 l 5
 187 711 l 5
 187 579 l 5
 50 579 l 5
54 0 m 1
 54 503 l 1
 183 503 l 1
 183 0 l 1
 54 0 l 1
EndSplineSet
EndChar

StartChar: hyphen
Encoding: 45 45 29
Width: 374
VWidth: 0
Flags: HMW
LayerCount: 3
Fore
SplineSet
338 368 m 5
 338 246 l 5
 24 246 l 1
 56 368 l 1
 338 368 l 5
EndSplineSet
EndChar

StartChar: l
Encoding: 108 108 30
Width: 237
VWidth: 0
Flags: HMW
LayerCount: 3
Fore
SplineSet
54 0 m 1
 54 718 l 1
 183 718 l 1
 183 0 l 1
 54 0 l 1
EndSplineSet
EndChar

StartChar: n
Encoding: 110 110 31
Width: 544
VWidth: 0
Flags: HMW
AnchorPoint: "Top" 273 574 basechar 0
LayerCount: 3
Fore
SplineSet
54 0 m 1
 54 503 l 1
 179 503 l 1
 180 360 l 1
 183 360 l 1
 183 0 l 1
 54 0 l 1
160 340 m 1
 160 443.849349711 226.160513945 512 329 512 c 3
 433.402843941 512 496 441.413793103 496 334 c 2
 496 0 l 1
 367 0 l 1
 367 300 l 2
 367 357.193389578 338.674804688 395 280 395 c 3
 218.6328125 395 183 357.053850446 183 287 c 1
 160 340 l 1
EndSplineSet
Layer: 2
SplineSet
72 0 m 1
 72 493 l 5
 122 493 l 5
 123 350 l 5
 126 350 l 5
 126 0 l 1
 72 0 l 1
113 344 m 5
 113 439.396495665 186.476340006 502 299 502 c 7
 411.029344513 502 477 426.98989899 477 314 c 6
 477 0 l 1
 422 0 l 1
 422 296 l 6
 422 396 377.395956808 456 285 456 c 7
 184.408424613 456 126 396.621303013 126 287 c 5
 113 344 l 5
EndSplineSet
EndChar

StartChar: h
Encoding: 104 104 32
Width: 544
VWidth: 0
Flags: HMW
LayerCount: 3
Fore
SplineSet
160 340 m 1
 160 443.849349711 226.160513945 512 329 512 c 3
 433.402843941 512 496 441.413793103 496 334 c 2
 496 0 l 1
 367 0 l 1
 367 300 l 2
 367 357.193389578 338.674804688 395 280 395 c 3
 218.6328125 395 183 357.053850446 183 287 c 1
 160 340 l 1
54 0 m 1
 54 718 l 1
 183 718 l 1
 183 0 l 1
 54 0 l 1
EndSplineSet
EndChar

StartChar: a
Encoding: 97 97 33
Width: 492
VWidth: 0
Flags: HMW
AnchorPoint: "Top" 241 574 basechar 0
LayerCount: 3
Fore
SplineSet
317 319 m 1
 317 373 281 402 208 402 c 3
 144 402 91 384 50 361 c 1
 81 481 l 1
 122 501 171 512 231 512 c 3
 370 512 444 447.138888889 444 327 c 1
 317 319 l 1
444 327 m 1
 444 0 l 1
 323 0 l 1
 322 143 l 1
 317 143 l 1
 317 319 l 1
 444 327 l 1
153 157 m 3
 153 122.806412583 174.290068201 98 224 98 c 3
 281.9296875 98 317 132.906684028 317 198 c 1
 334 149 l 1
 334 54.5507563694 274.607421875 -7 185 -7 c 3
 86.239339544 -7 24 57.5723684211 24 141 c 3
 24 279.618936085 148.971982445 297.325365156 249.7890625 306.006835938 c 2
 331 313 l 1
 331 226 l 1
 235.8515625 216.999023438 l 2
 183.091627756 211.923374474 153 195.5390625 153 157 c 3
EndSplineSet
Layer: 2
SplineSet
365 319 m 1
 365 404.228915663 316.083071509 450 233 450 c 3
 158.646584415 450 116.740506329 428.487804878 76 401 c 1
 92 464 l 1
 132.18 488.516129032 180.2 502 239 502 c 3
 353.418351248 502 420 438.722222222 420 332 c 1
 365 319 l 1
  Spiro
    365 319 v
    349.272 390.784 o
    304.089 435.007 o
    233 450 o
    168.36 443.417 o
    118.243 425.899 o
    76 401 v
    92 464 v
    134.856 484.731 o
    183.736 497.605 o
    239 502 o
    336.698 481.682 o
    398.543 423.431 o
    420 332 v
    0 0 z
  EndSpiro
420 332 m 1
 420 0 l 1
 371 0 l 1
 370 143 l 1
 365 143 l 1
 365 319 l 1
 420 332 l 1
  Spiro
    420 332 v
    420 0 v
    371 0 v
    370 143 v
    365 143 v
    365 319 v
    0 0 z
  EndSpiro
104 141 m 3
 104 80.5817264062 149.38349363 42 223 42 c 3
 311.07468078 42 365 96.4544270837 365 198 c 1
 382 149 l 1
 382 54.5507563694 308.656145134 -7 214 -7 c 3
 118.98816568 -7 47 47.7883260055 47 135 c 3
 47 252.837103378 157.174434575 270.964817072 263 281 c 2
 379 292 l 1
 379 249 l 1
 249.0625 236.9921875 l 2
 161.823483604 228.93023655 104 204.565934037 104 141 c 3
  Spiro
    104 141 o
    118.464 88.5248 o
    159.483 54.2165 o
    223 42 o
    298.896 59.8433 o
    347.791 112.494 o
    365 198 v
    382 149 v
    359.522 66.6475 o
    299.55 12.4179 o
    214 -7 o
    128.55 10.4004 o
    69.14 59.4876 o
    47 135 o
    79.4225 222.932 o
    160.062 264.9 o
    263 281 [
    379 292 v
    379 249 v
    249.062 236.992 ]
    172.745 222.669 o
    122.187 192.307 o
    0 0 z
  EndSpiro
EndSplineSet
Substitution2: "'ss01' Style Set 1 in Latin lookup 1-1" a.ss01
EndChar

StartChar: u
Encoding: 117 117 34
Width: 540
VWidth: 0
Flags: HMW
AnchorPoint: "Top" 270 574 basechar 0
LayerCount: 3
Fore
SplineSet
486 503 m 1
 486 0 l 1
 363 0 l 1
 362 143 l 1
 357 143 l 1
 357 503 l 1
 486 503 l 1
374 150 m 1
 374 54 318.180949146 -9 216 -9 c 3
 109.840625 -9 48 61.7838058036 48 169 c 2
 48 503 l 1
 177 503 l 1
 177 202 l 2
 177 146.010223388 204.674804688 109 262 109 c 3
 322.1015625 109 357 147.648648649 357 219 c 1
 374 150 l 1
EndSplineSet
EndChar

StartChar: b
Encoding: 98 98 35
Width: 606
VWidth: 0
Flags: HMW
LayerCount: 3
Fore
SplineSet
183 143 m 1
 180 143 l 1
 179 0 l 1
 54 0 l 1
 54 718 l 1
 183 718 l 1
 183 302 l 1
 182 302 l 1
 182 202 l 1
 183 202 l 1
 183 143 l 1
342 515 m 3
 492.673705544 515 582 400.30859375 582 252 c 3
 582 102.696289062 492.673705544 -12 342 -12 c 3
 223.80859375 -12 151 74.71875 151 182 c 1
 151 322 l 1
 151 429.221679688 224.592773438 515 342 515 c 3
317 402 m 3
 228.73046875 402 182 334.999619861 182 252 c 3
 182 169.000136719 228.73046875 101 317 101 c 3
 405.26953125 101 452 169.000136719 452 252 c 3
 452 334.999619861 405.26953125 402 317 402 c 3
EndSplineSet
EndChar

StartChar: d
Encoding: 100 100 36
Width: 606
VWidth: 0
Flags: HMW
LayerCount: 3
Fore
SplineSet
423 143 m 1
 423 202 l 1
 424 202 l 1
 424 302 l 1
 423 302 l 1
 423 718 l 1
 552 718 l 1
 552 0 l 1
 427 0 l 1
 426 143 l 1
 423 143 l 1
269 515 m 3
 381.352539062 515 455 429.221679688 455 322 c 1
 455 182 l 17
 455 74.71875 382.13671875 -12 269 -12 c 3
 113.318667553 -12 24 102.696289062 24 252 c 3
 24 400.30859375 113.318667553 515 269 515 c 3
289 402 m 7
 200.73046875 402 154 334.999619861 154 252 c 3
 154 169.000136719 200.73046875 101 289 101 c 3
 377.26953125 101 424 169.000136719 424 252 c 3
 424 334.999619861 377.26953125 402 289 402 c 7
EndSplineSet
EndChar

StartChar: p
Encoding: 112 112 37
Width: 606
VWidth: 0
Flags: HMW
LayerCount: 3
Fore
SplineSet
183 360 m 1
 183 301 l 1
 182 301 l 1
 182 201 l 1
 183 201 l 1
 183 -165 l 1
 54 -165 l 1
 54 503 l 1
 179 503 l 1
 180 360 l 1
 183 360 l 1
342 -12 m 3
 224.647460938 -12 151 73.7783203125 151 181 c 1
 151 321 l 1
 151 428.28125 223.86328125 515 343 515 c 3
 492.672141708 515 582 400.303710938 582 251 c 3
 582 102.69140625 492.673705544 -12 342 -12 c 3
317 101 m 7
 405.26953125 101 452 168.000380139 452 251 c 3
 452 333.999863281 405.26953125 402 317 402 c 3
 228.73046875 402 182 333.999863281 182 251 c 3
 182 168.000380139 228.73046875 101 317 101 c 7
EndSplineSet
EndChar

StartChar: q
Encoding: 113 113 38
Width: 606
VWidth: 0
Flags: HMW
LayerCount: 3
Fore
SplineSet
423 360 m 1
 426 360 l 1
 427 503 l 1
 552 503 l 1
 552 -165 l 1
 423 -165 l 1
 423 201 l 1
 424 201 l 1
 424 301 l 1
 423 301 l 1
 423 360 l 1
264 -12 m 3
 113.326294456 -12 24 102.69140625 24 251 c 3
 24 400.303710938 113.326294456 515 264 515 c 3
 382.13671875 515 455 428.727539062 455 322 c 1
 455 181 l 1
 455 73.7783203125 381.352539062 -12 264 -12 c 3
289 101 m 3
 377.26953125 101 424 168.000380139 424 251 c 3
 424 333.999863281 377.26953125 402 289 402 c 3
 200.73046875 402 154 333.999863281 154 251 c 3
 154 168.000380139 200.73046875 101 289 101 c 3
EndSplineSet
EndChar

StartChar: t
Encoding: 116 116 39
Width: 353
VWidth: 0
Flags: HMW
LayerCount: 3
Fore
SplineSet
328 396 m 1
 -5 396 l 1
 -5 419 l 1
 176 615 l 1
 176 503 l 1
 328 503 l 1
 328 396 l 1
72 150 m 2
 72 434 l 1
 176 615 l 1
 201 615 l 1
 201 175 l 2
 201 121 222.386837121 107 269 107 c 3
 292.105520615 107 312.781862746 112.013020834 333 121 c 1
 333 12 l 1
 315.73292824 1.20027043269 277.476190476 -6 245 -6 c 3
 127.956465871 -6 72 38.4238410596 72 150 c 2
EndSplineSet
EndChar

StartChar: e
Encoding: 101 101 40
Width: 538
VWidth: 0
Flags: HMW
AnchorPoint: "Top" 279 574 basechar 0
LayerCount: 3
Fore
SplineSet
94 297 m 1
 446 297 l 1
 446 204 l 1
 94 204 l 1
 94 297 l 1
486 24 m 1
 447.555555555 2 378.619500882 -13 313 -13 c 3
 123 -13 24 92 24 252 c 3
 24 394 117.638461538 517 283 517 c 3
 429.094420601 517 513 403.546184739 513 267 c 3
 513 246 512 224 509 204 c 1
 381 204 l 1
 384 224 386 246 386 266 c 3
 386 351.208633094 352.935779817 407 280 407 c 7
 197.6484375 407 153 350.643312102 153 249 c 3
 153 154.625 202.734463277 98 319 98 c 3
 379.424074074 98 442.903225806 115.354121864 486 141 c 1
 486 24 l 1
EndSplineSet
EndChar

StartChar: s
Encoding: 115 115 41
Width: 423
VWidth: 0
Flags: HMW
LayerCount: 3
Fore
SplineSet
384 489 m 1
 355 378 l 1
 308.389308763 400.814814815 265 406 230 406 c 3
 176 406 155 393 155 367 c 3
 155 346.629671816 165.13810829 336.342205469 200 323 c 2
 281 292 l 2
 354.020606222 264.053842063 402 226.666666667 402 146 c 3
 402 43 326 -14 203 -14 c 3
 138.393939394 -14 76.0314656825 2.84210526316 39 26 c 1
 39 143 l 1
 89.1965317919 110.333333333 149 94 206 94 c 3
 255.303030303 94 276 107 276 135 c 3
 276 156 266.02950155 166.089697533 226.041992188 181.536132812 c 2
 142 214 l 2
 78.1044688702 238.681661899 29 273 29 359 c 3
 29 455 110 517 235 517 c 3
 298.950407159 517 349.942857143 505.592592593 384 489 c 1
EndSplineSet
EndChar

StartChar: c
Encoding: 99 99 42
Width: 460
VWidth: 0
Flags: HMW
AnchorPoint: "Cedilla" 285 0 basechar 0
LayerCount: 3
Fore
SplineSet
412 379 m 1
 382.678297776 390.447020933 356.446702224 399 310 399 c 3
 244.518935485 399 155 367.029067888 155 253 c 3
 155 144.17643015 237.585872396 100 316 100 c 3
 358.239798553 100 407.103673649 111.694965875 436 128 c 1
 436 12 l 1
 412.915631151 0.570652173913 366.748831201 -12 310 -12 c 3
 186.66389974 -12 24 50.1427644919 24 249 c 3
 24 464.479964009 201.777705919 515 324 515 c 3
 378.611490885 515 422.495621744 501.875 442 494 c 1
 412 379 l 1
EndSplineSet
EndChar

StartChar: r
Encoding: 114 114 43
Width: 376
VWidth: 0
Flags: HMW
LayerCount: 3
Fore
SplineSet
54 0 m 1
 54 503 l 1
 176 503 l 1
 177 360 l 1
 183 360 l 1
 183 0 l 1
 54 0 l 1
347 353 m 1
 321.932084309 366.751135164 299.786885246 375 275 375 c 3
 218.954022989 375 183 343.717948718 183 253 c 5
 163 354 l 1
 178 437 216.373239437 510 306 510 c 3
 337 510 363.534246575 497 381 483 c 1
 347 353 l 1
EndSplineSet
EndChar

StartChar: v
Encoding: 118 118 44
Width: 509
VWidth: 0
Flags: HMW
LayerCount: 3
Fore
SplineSet
338 0 m 1
 219 0 l 5
 367 503 l 1
 504 503 l 1
 338 0 l 1
169 0 m 1
 5 503 l 1
 147 503 l 1
 295 0 l 1
 169 0 l 1
EndSplineSet
EndChar

StartChar: m
Encoding: 109 109 45
Width: 817
VWidth: 0
Flags: HMW
LayerCount: 3
Fore
SplineSet
438 321 m 1
 438 435.717512679 508.212526483 511 611 511 c 3
 710.098887839 511 769 442.803190494 769 340 c 2
 769 0 l 1
 640 0 l 1
 640 308 l 2
 640 362.311751302 614.256239853 395 564 395 c 3
 507.326329023 395 476 358.811414931 476 292 c 1
 438 321 l 1
54 0 m 1
 54 503 l 1
 179 503 l 1
 180 360 l 1
 183 360 l 1
 183 0 l 1
 54 0 l 1
162 344 m 1
 162 444.830793108 226.479249602 511 318 511 c 3
 417.098887839 511 476 442.803190494 476 340 c 2
 476 0 l 1
 347 0 l 1
 347 308 l 2
 347 362.311751302 321.256239853 395 271 395 c 3
 214.326329023 395 183 358.811414931 183 292 c 1
 162 344 l 1
EndSplineSet
EndChar

StartChar: f
Encoding: 102 102 46
Width: 341
VWidth: 0
Flags: HMW
LayerCount: 3
Fore
SplineSet
24 503 m 5
 336 503 l 5
 336 396 l 5
 4 396 l 5
 24 503 l 5
82 548 m 2
 82 695.5 188 725 258 725 c 3
 287.467741935 725 306.774193548 720 321 714 c 1
 342 602 l 1
 326.736842105 607 306.385964912 612 284 612 c 3
 245 612 211 597.5625 211 546 c 2
 211 0 l 1
 82 0 l 1
 82 548 l 2
EndSplineSet
EndChar

StartChar: g
Encoding: 103 103 47
Width: 601
VWidth: 0
Flags: HMW
LayerCount: 3
Fore
SplineSet
418 360 m 1
 421 360 l 1
 422 503 l 1
 547 503 l 1
 547 65 l 2
 547 -80 459.118262609 -176 267 -176 c 3
 194.977512428 -176 122.538071066 -160.734693878 76 -132 c 1
 76 -12 l 1
 129 -48.4922667519 202.176377287 -67 267 -67 c 3
 363.607404116 -67 418 -25 418 56 c 2
 418 215 l 1
 419 215 l 1
 419 317 l 1
 418 317 l 1
 418 360 l 1
262 18 m 3
 112.582279529 18 24 126.149955719 24 266 c 3
 24 406.820426695 112.582279529 515 262 515 c 3
 378.282226562 515 450 428.727539062 450 322 c 1
 450 211 l 1
 450 103.778320312 377.509765625 18 262 18 c 3
287 131 m 3
 373.306640625 131 419 191.300568315 419 266 c 3
 419 340.754605877 373.306640625 402 287 402 c 3
 199.385683002 402 153 340.754605877 153 266 c 3
 153 191.300568315 199.385683002 131 287 131 c 3
EndSplineSet
Substitution2: "'ss02' Style Set 2 in Latin lookup 2-1" g.ss02
EndChar

StartChar: j
Encoding: 106 106 48
Width: 237
VWidth: 0
Flags: HMW
LayerCount: 3
Fore
SplineSet
50 579 m 5
 50 711 l 5
 187 711 l 5
 187 579 l 5
 50 579 l 5
54 8 m 2
 54 503 l 1
 183 503 l 1
 183 11 l 2
 183 -121 118 -170 26 -170 c 3
 0.0625 -170 -25.6129032258 -165 -38 -159 c 1
 -38 -51 l 1
 -25.9136827257 -54.599609375 -15 -56 -3 -56 c 3
 34 -56 54 -33 54 8 c 2
EndSplineSet
EndChar

StartChar: k
Encoding: 107 107 49
Width: 516
VWidth: 0
Flags: HMW
LayerCount: 3
Fore
SplineSet
167 261 m 1
 291 304 l 1
 521 0 l 1
 361 0 l 1
 167 261 l 1
162 261 m 1
 363 503 l 5
 517 503 l 1
 291 231 l 1
 162 261 l 1
54 0 m 1
 54 718 l 1
 183 718 l 1
 183 0 l 1
 54 0 l 1
EndSplineSet
EndChar

StartChar: w
Encoding: 119 119 50
Width: 750
VWidth: 0
Flags: HMW
LayerCount: 3
Fore
SplineSet
620 0 m 1
 510 0 l 1
 612 503 l 1
 740 503 l 1
 620 0 l 1
477 0 m 1
 329 503 l 1
 442 503 l 1
 587 0 l 5
 477 0 l 1
271 0 m 1
 168 0 l 1
 313 503 l 1
 421 503 l 1
 271 0 l 1
128 0 m 1
 10 503 l 1
 141 503 l 1
 245 0 l 1
 128 0 l 1
EndSplineSet
EndChar

StartChar: x
Encoding: 120 120 51
Width: 502
VWidth: 0
Flags: HMW
LayerCount: 3
Back
SplineSet
138 0 m 5
 -6 0 l 5
 352 503 l 5
 495 503 l 5
 138 0 l 5
358 0 m 5
 9 503 l 5
 158 503 l 5
 506 0 l 5
 358 0 l 5
EndSplineSet
Fore
SplineSet
138 0 m 1
 -5 0 l 1
 166.318359375 261.1875 l 1
 10 503 l 1
 159 503 l 1
 256.659179688 343.084960938 l 1
 353 503 l 1
 496 503 l 1
 338.3515625 260.881835938 l 1
 507 0 l 1
 358 0 l 1
 247.224609375 178.979492188 l 1
 138 0 l 1
EndSplineSet
EndChar

StartChar: y
Encoding: 121 121 52
Width: 490
VWidth: 0
Flags: HMW
AnchorPoint: "Top" 248 574 basechar 0
LayerCount: 3
Back
SplineSet
318 7 m 6
 279 -108 231 -168 124 -168 c 7
 83 -168 48 -159 30 -149 c 5
 30 -36 l 5
 50 -45 80 -53 104 -53 c 7
 158 -53 182 -20 187 19 c 6
 191 50 l 5
 219 50 l 5
 353 503 l 5
 485 503 l 5
 333 50 l 5
 318 7 l 6
5 503 m 5
 147 503 l 5
 289 50 l 5
 201 -49 l 5
 166 50 l 5
 5 503 l 5
EndSplineSet
Fore
SplineSet
318 7 m 2
 279 -108 231 -168 124 -168 c 3
 83 -168 48 -159 30 -149 c 1
 30 -36 l 1
 50 -45 80 -53 104 -53 c 3
 158 -53 182 -20 187 19 c 2
 191 50 l 1
 219 50 l 1
 353 503 l 1
 485 503 l 1
 318 7 l 2
5 503 m 1
 147 503 l 1
 289 50 l 1
 201 -49 l 1
 5 503 l 1
EndSplineSet
EndChar

StartChar: z
Encoding: 122 122 53
Width: 444
VWidth: 0
Flags: HMW
AnchorPoint: "Top" 237 574 basechar 0
LayerCount: 3
Fore
SplineSet
14 22 m 1
 94 110 l 1
 449 110 l 1
 415 0 l 1
 14 0 l 1
 14 22 l 1
431 481 m 1
 350 393 l 1
 16 393 l 1
 50 503 l 1
 431 503 l 1
 431 481 l 1
14 22 m 1
 282 471 l 1
 431 481 l 1
 163 34 l 1
 14 22 l 1
EndSplineSet
EndChar

StartChar: period
Encoding: 46 46 54
Width: 225
VWidth: 0
Flags: HMW
LayerCount: 3
Fore
SplineSet
40 0 m 1
 40 152 l 1
 185 152 l 5
 185 0 l 5
 40 0 l 1
EndSplineSet
EndChar

StartChar: comma
Encoding: 44 44 55
Width: 235
VWidth: 0
Flags: HMW
LayerCount: 3
Fore
SplineSet
56 -69 m 3
 90 -69 106 -53.7783203125 106 -16 c 2
 106 6 l 1
 45 25 l 1
 45 152 l 1
 195 152 l 1
 195 -14 l 2
 195 -99.638671875 148.052734375 -148 77 -148 c 3
 61.34765625 -148 39.6025390625 -145.5 23 -138 c 1
 17 -63 l 1
 29.103515625 -67 43.896484375 -69 56 -69 c 3
EndSplineSet
EndChar

StartChar: two
Encoding: 50 50 56
Width: 550
VWidth: 0
Flags: HMW
LayerCount: 3
Fore
SplineSet
39 0 m 1
 142 120 l 1
 528 120 l 1
 497 0 l 1
 39 0 l 1
48 517 m 1
 82 646 l 1
 123.329787233 674.17419921 182.26548995 697 267 697 c 7
 397.047489665 697 495 635.988764045 495 511 c 3
 495 438.196589488 465.970634417 380.033235936 368.55078125 293.958007812 c 2
 269 206 l 2
 229.715040362 171.28980744 202 140 202 88 c 1
 39 0 l 1
 39 32 l 2
 39 114.69324498 88 200.968446771 197.064453125 301.57421875 c 2
 281 379 l 2
 349 440.187021409 360 460.608173793 360 502 c 3
 360 551.598015738 315 576 251 576 c 3
 165.625233154 576 109.398058252 553.383333334 48 517 c 1
EndSplineSet
EndChar

StartChar: one
Encoding: 49 49 57
Width: 550
VWidth: 0
Flags: HMW
LayerCount: 3
Fore
SplineSet
393 693 m 5
 393 572 l 5
 74 508 l 5
 107 637 l 5
 393 693 l 5
259 0 m 5
 259 653 l 5
 393 693 l 5
 393 0 l 5
 259 0 l 5
EndSplineSet
EndChar

StartChar: three
Encoding: 51 51 58
Width: 550
VWidth: 0
Flags: HMW
LayerCount: 3
Fore
SplineSet
510 202 m 3
 510 73.7523809524 407.373271889 -8 257 -8 c 3
 168.299670917 -8 97.0101522843 13.84 51 44 c 1
 51 173 l 1
 117 135 168.83902439 112 254 112 c 3
 316.544710202 112 371 139.846109704 371 203 c 3
 371 278.186915888 279.432692308 301.01980198 157 302 c 1
 185 408 l 1
 276 379 l 1
 379.209125476 379 510 327.219512195 510 202 c 3
354 498 m 3
 354 553.375 300.434782609 579 238 579 c 3
 169.359375 579 104.485436893 556.766666667 47 521 c 1
 81 650 l 1
 123.446808511 675.964458095 182.236373938 697 271 697 c 3
 394.826043099 697 492 635.988764045 492 524 c 3
 492 405.333333333 384.745247148 346 328 346 c 1
 185 408 l 1
 279.212643678 410.02247191 354 427 354 498 c 3
EndSplineSet
EndChar

StartChar: zero
Encoding: 48 48 59
Width: 550
VWidth: 0
Flags: HMW
LayerCount: 3
Fore
SplineSet
274 700 m 3
 438.872440733 700 526 580.854492188 526 346 c 3
 526 108.91796875 438.872440733 -12 274 -12 c 3
 110.436150157 -12 24 108.91796875 24 346 c 3
 24 580.854492188 110.436150157 700 274 700 c 3
274 579 m 3
 197.930741567 579 158 510.575195312 158 346 c 3
 158 179.342773438 197.930741567 109 274 109 c 3
 351.380783081 109 392 179.342773438 392 346 c 3
 392 510.575195312 351.380783081 579 274 579 c 3
EndSplineSet
EndChar

StartChar: four
Encoding: 52 52 60
Width: 550
VWidth: 0
Flags: HMW
LayerCount: 3
Fore
SplineSet
10 264 m 1
 555 264 l 1
 533 155 l 1
 10 155 l 1
 10 264 l 1
327 0 m 1
 327 424 l 1
 461 461 l 1
 461 0 l 1
 327 0 l 1
10 264 m 5
 271 688 l 5
 420 688 l 1
 158 264 l 1
 10 264 l 5
EndSplineSet
EndChar

StartChar: five
Encoding: 53 53 61
Width: 550
VWidth: 0
Flags: HMW
LayerCount: 3
Fore
SplineSet
65 371 m 1
 106 688 l 1
 225 688 l 1
 183 371 l 1
 65 371 l 1
105 565 m 1
 106 688 l 1
 488 688 l 5
 455 565 l 5
 105 565 l 1
511 227 m 3
 511 82.8403361345 403.915928927 -8 242 -8 c 3
 159.041561403 -8 87.4467005077 13.42 43 43 c 1
 43 172 l 1
 103.796116505 135 163.073466435 112 245 112 c 3
 315.462121212 112 376 143.824125376 376 218 c 3
 376 300.291489443 305 327 221 327 c 3
 167.697099502 327 100.647058824 316 56 301 c 1
 69 399 l 1
 112.477386934 415.918011944 192.802955665 440 275 440 c 3
 405.481367657 440 511 364.942857143 511 227 c 3
EndSplineSet
EndChar

StartChar: six
Encoding: 54 54 62
Width: 550
VWidth: 0
Flags: HMW
LayerCount: 3
Fore
SplineSet
28 330 m 1
 28 96 137.783601923 -12 301 -12 c 3
 441.221415763 -12 539 84 539 226 c 3
 539 354.012571334 437.150261464 444 321 444 c 3
 218.059640906 444 148 388.811320755 148 309 c 1
 177 216 l 1
 177 277.142857143 225.849557522 323 292 323 c 3
 358.150442478 323 407 277.142857143 407 216 c 3
 407 153.859813084 358.150442478 107 292 107 c 3
 225.849557522 107 177 153.859813084 177 216 c 1
 155 339 l 1
 155 464.714285714 200.024590407 579 336 579 c 3
 392 579 440.776119403 558.090909091 471 533 c 1
 502 653 l 1
 464.413894613 679.211538462 410 700 342 700 c 3
 113.487179487 700 28 528 28 330 c 1
EndSplineSet
EndChar

StartChar: seven
Encoding: 55 55 63
Width: 550
VWidth: 0
Flags: HMW
LayerCount: 3
Fore
SplineSet
538 688 m 1
 538 664 l 1
 458 565 l 1
 13 565 l 1
 46 688 l 1
 538 688 l 1
88 0 m 1
 115 155 310 512 415 664 c 1
 538 664 l 1
 445.609836066 508 264.298780488 155 235 0 c 1
 88 0 l 1
EndSplineSet
EndChar

StartChar: eight
Encoding: 56 56 64
Width: 550
VWidth: 0
Flags: HMW
LayerCount: 3
Fore
SplineSet
275 371 m 3
 441.129557292 371 527 303.491272893 527 186 c 3
 527 76.8626966292 435.129557292 -12 275 -12 c 3
 114.870442708 -12 23 76.8626966292 23 186 c 3
 23 303.491272893 108.870442708 371 275 371 c 3
275 299 m 3
 195.860349847 299 154 254.848067434 154 203 c 3
 154 150.957969516 195.860349847 106 275 106 c 3
 354.139650153 106 396 150.957969516 396 203 c 3
 396 254.848067434 354.139650153 299 275 299 c 3
275 699 m 3
 422.420862268 699 507 611.850050384 507 509 c 3
 507 408.201016656 432.464152311 336 275 336 c 3
 117.535847689 336 43 408.201016656 43 509 c 7
 43 611.850050384 127.579137732 699 275 699 c 3
275 583 m 3
 210.32776794 583 173 542.527395148 173 495 c 7
 173 447.250095741 210.32776794 406 275 406 c 3
 339.67223206 406 377 447.250095741 377 495 c 3
 377 542.527395148 339.67223206 583 275 583 c 3
EndSplineSet
EndChar

StartChar: nine
Encoding: 57 57 65
Width: 550
VWidth: 0
Flags: HMW
LayerCount: 3
Fore
SplineSet
522 353 m 1
 522 592 412.216398077 700 251 700 c 3
 108.778584237 700 11 601.210084034 11 460 c 3
 11 330.225787776 112.849738536 239 232 239 c 3
 331.940359094 239 402 295.823899371 402 378 c 1
 373 470 l 1
 373 407.714285714 324.150442478 361 258 361 c 3
 191.849557522 361 143 407.714285714 143 470 c 3
 143 533.280373832 191.849557522 581 258 581 c 3
 324.150442478 581 373 533.280373832 373 470 c 1
 396 350 l 1
 396 228.238095238 362.024803003 108 219 108 c 3
 153.419753086 108 100.036599764 130.638297872 53 164 c 1
 53 34 l 1
 85.2539128898 10.4102564103 150.261904762 -12 225 -12 c 3
 451.044368601 -12 522 165 522 353 c 1
EndSplineSet
EndChar

StartChar: f_f
Encoding: 1114113 -1 70
Width: 664
VWidth: 0
Flags: HMW
LayerCount: 3
Fore
SplineSet
248 503 m 1
 380 503 l 1
 380 396 l 1
 248 396 l 1
 248 503 l 1
EndSplineSet
Refer: 46 102 N 1 0 0 1 323 0 2
Refer: 46 102 N 1 0 0 1 0 0 2
LCarets2: 1 0
Ligature2: "'liga' Standard Ligatures in Latin lookup 0-1" f f
EndChar

StartChar: a.ss01
Encoding: 1114114 -1 71
Width: 606
VWidth: 0
Flags: HMW
LayerCount: 3
Fore
SplineSet
552 0 m 1
 427 0 l 1
 426 143 l 1
 423 143 l 1
 423 201 l 1
 424 201 l 1
 424 301 l 1
 423 301 l 1
 423 360 l 1
 426 360 l 1
 427 503 l 1
 552 503 l 1
 552 0 l 1
264 -12 m 3
 113.326294456 -12 24 102.69140625 24 251 c 3
 24 400.303710938 113.326294456 515 264 515 c 3
 382.13671875 515 455 428.727539062 455 322 c 1
 455 181 l 1
 455 73.7783203125 381.352539062 -12 264 -12 c 3
289 101 m 3
 377.26953125 101 424 168.000380139 424 251 c 3
 424 333.999863281 377.26953125 402 289 402 c 3
 200.73046875 402 154 333.999863281 154 251 c 3
 154 168.000380139 200.73046875 101 289 101 c 3
EndSplineSet
EndChar

StartChar: g.ss02
Encoding: 1114115 -1 72
Width: 502
VWidth: 0
Flags: HMW
LayerCount: 3
Fore
SplineSet
307 503 m 1
 497 503 l 1
 497 413 l 1
 307 412 l 1
 307 503 l 1
171 216 m 1
 240 176 l 1
 188.260869565 173 170 166 170 146 c 3
 170 128.32 185.394736842 121.045454545 209 120 c 2
 319 115 l 2
 436 109.681818182 486 49.5185185185 486 -21 c 3
 486 -137 365 -185 244 -185 c 3
 145.838983051 -185 10 -162 10 -60 c 7
 10 -16 31.671641791 31 142 50 c 1
 207 12 l 1
 147.605263158 16 133 -11 133 -30 c 7
 133 -80 204.934306569 -89 268 -89 c 3
 310 -89 371 -77 371 -37 c 3
 371 -9 351 4 304.9765625 6.603515625 c 2
 176 14 l 2
 133.690207139 16.4072559541 49 38 49 116 c 3
 49 158 81.2644628099 203 171 216 c 1
233 516 m 3
 304 516 361 493 396 455 c 1
 387 451 378 446 370 441 c 1
 416.287878788 433 435 383 435 341 c 3
 435 251 356.391089109 176 234 176 c 3
 109.609756098 176 30 251 30 346 c 3
 30 441 109.607843137 516 233 516 c 3
233 420 m 3
 183.617283951 420 153 387 153 346 c 3
 153 305 183.617283951 272 233 272 c 3
 282.382716049 272 313 305 313 346 c 3
 313 387 282.382716049 420 233 420 c 3
EndSplineSet
EndChar

StartChar: parenleft
Encoding: 40 40 73
Width: 326
VWidth: 0
Flags: HMW
LayerCount: 3
Fore
SplineSet
142 308 m 3
 142 446.903507053 193.596174173 621.794646356 321 630 c 1
 305 726 l 1
 109.90943287 726 25 513.402281035 25 288 c 3
 25 75.2932274575 114.185185185 -133 305 -133 c 1
 321 -40 l 1
 184.117647058 -22.8521739131 142 141.73957201 142 308 c 3
EndSplineSet
EndChar

StartChar: dollar
Encoding: 36 36 75
Width: 505
VWidth: 0
Flags: HMW
LayerCount: 3
Fore
SplineSet
203 -100 m 5
 203 58 l 5
 325 58 l 5
 325 -100 l 5
 203 -100 l 5
203 630 m 5
 203 788 l 5
 325 788 l 5
 325 630 l 5
 203 630 l 5
EndSplineSet
Refer: 24 83 S 1 0 0 1 0 0 2
EndChar

StartChar: semicolon
Encoding: 59 59 76
Width: 231
VWidth: 0
Flags: HMW
LayerCount: 3
Fore
SplineSet
43 351 m 1
 43 503 l 1
 188 503 l 1
 188 351 l 1
 43 351 l 1
EndSplineSet
Refer: 55 44 N 1 0 0 1 0 0 2
EndChar

StartChar: bracketleft
Encoding: 91 91 78
Width: 342
VWidth: 0
Flags: MW
LayerCount: 3
Fore
SplineSet
132 718 m 1
 335 718 l 1
 309 619 l 5
 132 619 l 5
 132 718 l 1
132 -26 m 1
 309 -26 l 1
 335 -125 l 1
 132 -125 l 1
 132 -26 l 1
176 -125 m 1
 60 -125 l 1
 60 718 l 1
 176 718 l 1
 176 -125 l 1
EndSplineSet
EndChar

StartChar: exclam
Encoding: 33 33 80
Width: 255
VWidth: 0
Flags: HMW
LayerCount: 3
Fore
SplineSet
82 226 m 5
 60 511 l 1
 60 688 l 1
 196 688 l 1
 196 511 l 1
 174 226 l 1
 82 226 l 5
EndSplineSet
Refer: 54 46 N 1 0 0 1 15 0 2
EndChar

StartChar: question
Encoding: 63 63 81
Width: 467
VWidth: 0
Flags: HMW
LayerCount: 3
Fore
SplineSet
159 235 m 1
 159 314.435582822 194.864264 349.677383377 250 401 c 0
 277.482485921 426.581831152 307 455 307 501 c 3
 307 555 263 576 202 576 c 3
 125.111328125 576 72.166015625 554 15 518 c 1
 49 649 l 5
 93 677 140.756835938 697 224 697 c 3
 345 697 442 636 442 522 c 3
 442 447.801757812 408.053639147 405.234453136 352.21875 353.93359375 c 0
 301 306.874023438 271 280 266 226 c 1
 159 226 l 1
 159 226 159 230.5 159 235 c 1
EndSplineSet
Refer: 54 46 N 1 0 0 1 105 0 2
EndChar

StartChar: ampersand
Encoding: 38 38 82
Width: 593
VWidth: 0
Flags: HMW
LayerCount: 3
Fore
SplineSet
215 406 m 1
 246 325 l 1
 182 313.833502628 158 270.357421875 158 214 c 3
 158 149 207.939294334 97 280 97 c 3
 381.458984375 97 435 205 447 382 c 1
 557 347 l 1
 543.827148438 153 428.9765625 -10 248 -10 c 3
 135 -10 31 68 31 193 c 3
 31 314 114 382 215 406 c 1
442 0 m 1
 157 367 l 2
 118.807988366 416.18059042 95 459.4765625 95 518 c 3
 95 642.33984375 208.466796875 698 315 698 c 3
 375.561290323 698 428.129629629 683.446808511 464 660 c 1
 434 541 l 1
 400.192828634 562.245773682 359.634270163 581.891601562 307 581.891601562 c 3
 275 581.891601562 225 572.042029572 225 518 c 3
 225 495.797851562 232.69834855 474 260.877929688 436.40625 c 2
 588 0 l 1
 442 0 l 1
EndSplineSet
EndChar

StartChar: asterisk
Encoding: 42 42 83
Width: 477
VWidth: 0
Flags: HMW
LayerCount: 3
Fore
SplineSet
281 454 m 1
 316 432 356.591692698 389.401214858 388 347 c 2
 408 320 l 1
 328 262 l 1
 307 289 l 2
 274.597633452 330.660185562 250 383 239 423 c 1
 228 383 203.387198939 330.64068435 171 289 c 2
 150 262 l 1
 70 320 l 1
 91 347 l 2
 123.387198939 388.64068435 163 431 197 454 c 1
 193 454 188 454 184 454 c 0
 143 454 91.8068391867 461.455637708 48 477 c 2
 17 488 l 1
 47 582 l 1
 78 572 l 2
 126.764373233 556.269557022 180 530 212 504 c 1
 197 542 188 599 188 652 c 2
 188 688 l 1
 287 688 l 1
 287 652 l 2
 287 599 279 542 264 504 c 1
 296 530 348.226248776 553.382957884 399 572 c 2
 429 583 l 1
 460 488 l 1
 428 478 l 2
 383.017793594 463.943060498 333 454 292 454 c 0
 288 454 285 454 281 454 c 1
EndSplineSet
EndChar

StartChar: slash
Encoding: 47 47 84
Width: 469
VWidth: 0
Flags: HMW
LayerCount: 3
Fore
SplineSet
5 -125 m 1
 344 718 l 1
 464 718 l 1
 125 -125 l 1
 5 -125 l 1
EndSplineSet
EndChar

StartChar: backslash
Encoding: 92 92 85
Width: 469
VWidth: 0
Flags: HMW
LayerCount: 3
Fore
SplineSet
464 -125 m 1
 344 -125 l 1
 5 718 l 1
 125 718 l 5
 464 -125 l 1
EndSplineSet
EndChar

StartChar: underscore
Encoding: 95 95 86
Width: 520
VWidth: 0
Flags: MW
LayerCount: 3
Fore
SplineSet
516 0 m 5
 516 -112 l 5
 -4 -112 l 1
 25 0 l 1
 516 0 l 5
EndSplineSet
EndChar

StartChar: plus
Encoding: 43 43 87
Width: 497
VWidth: 0
Flags: HW
LayerCount: 3
Fore
SplineSet
197 85 m 5
 197 530 l 1
 304 530 l 1
 304 85 l 5
 197 85 l 5
43 362 m 1
 471 362 l 1
 471 265 l 1
 18 265 l 1
 43 362 l 1
EndSplineSet
EndChar

StartChar: braceleft
Encoding: 123 123 88
Width: 315
VWidth: 0
Flags: HW
LayerCount: 3
Fore
SplineSet
149 297 m 1
 20 297 l 1
 20 339 l 1
 77.7815154733 341.505859375 128 361.701171875 128 415 c 3
 128 432 121.937949357 450.422307035 105.80859375 469.642578125 c 0
 87.046589499 492 68 518.506835938 68 567 c 3
 68 673.869140625 197.2403361 724 280 724 c 1
 295 631 l 1
 229.026442307 623.867057292 185 608.7515625 185 573 c 3
 185 550.893554688 193.56962652 539.305585938 210.889648438 518 c 0
 229.022363413 495.694709681 251 464 251 425 c 3
 251 357 204.080189732 316.248046875 149 297 c 1
149 297 m 1
 204.080189732 277.751953125 251 237 251 169 c 3
 251 129 229.064815379 99.1079193082 210.889648438 76 c 0
 193.911366283 54.4138008031 185 42.1064453125 185 21 c 3
 185 -14.7515625 229.026442307 -29.8670572917 295 -37 c 1
 280 -130 l 1
 197.2403361 -130 68 -79.869140625 68 27 c 3
 68 75.4931640625 87.3611844129 101.73972515 105.80859375 124.357421875 c 0
 121.829441651 144 128 162 128 179 c 3
 128 232.298828125 77.7815154733 252.494140625 20 255 c 1
 20 297 l 1
 149 297 l 1
EndSplineSet
EndChar

StartChar: bar
Encoding: 124 124 89
Width: 236
VWidth: 0
Flags: HMW
LayerCount: 3
Fore
SplineSet
60 -125 m 1
 60 718 l 1
 176 718 l 1
 176 -125 l 1
 60 -125 l 1
EndSplineSet
EndChar

StartChar: numbersign
Encoding: 35 35 91
Width: 698
VWidth: 0
Flags: HW
LayerCount: 3
Fore
SplineSet
618 288 m 1
 618 187 l 1
 15 187 l 1
 42 288 l 1
 618 288 l 1
678 516 m 1
 678 415 l 1
 75 415 l 1
 102 516 l 1
 678 516 l 1
327 0 m 1
 507 688 l 1
 624 688 l 1
 444 0 l 1
 327 0 l 1
83 0 m 1
 263 688 l 1
 380 688 l 5
 200 0 l 5
 83 0 l 1
EndSplineSet
EndChar

StartChar: percent
Encoding: 37 37 92
Width: 790
VWidth: 0
Flags: HW
LayerCount: 3
Fore
SplineSet
606 369 m 3
 709.30859375 369 765 294.821289062 765 183 c 3
 765 70.068359375 709.30859375 -5 606 -5 c 3
 503.346679688 -5 448 70.068359375 448 183 c 3
 448 294.821289062 503.346679688 369 606 369 c 3
606 284.5 m 3
 568.62109375 284.5 549 252.214567454 549 183 c 3
 549 112.706507925 568.62109375 79.5 606 79.5 c 3
 644.034179688 79.5 664 112.706507925 664 183 c 3
 664 252.214567454 644.034179688 284.5 606 284.5 c 3
183 693 m 3
 287.02734375 693 342 618.821289062 342 507 c 3
 342 394.069335938 287.02734375 319 183 319 c 3
 79.626953125 319 25 394.069335938 25 507 c 3
 25 618.821289062 79.626953125 693 183 693 c 3
183 608.5 m 3
 145.62109375 608.5 126 576.214567454 126 507 c 3
 126 436.706507925 145.62109375 403.5 183 403.5 c 3
 221.034179688 403.5 241 436.706507925 241 507 c 3
 241 576.214567454 221.034179688 608.5 183 608.5 c 3
98.5 0 m 5
 575.5 688 l 5
 691.5 688 l 5
 214.5 0 l 5
 98.5 0 l 5
EndSplineSet
EndChar

StartChar: equal
Encoding: 61 61 93
Width: 508
VWidth: 0
Flags: HW
LayerCount: 3
Fore
SplineSet
59 259 m 5
 467 259 l 5
 467 157 l 1
 33 157 l 1
 59 259 l 5
59 455 m 1
 467 455 l 1
 467 353 l 1
 33 353 l 1
 59 455 l 1
EndSplineSet
EndChar

StartChar: at
Encoding: 64 64 94
Width: 977
VWidth: 0
Flags: HW
LayerCount: 3
Fore
SplineSet
474 146 m 3
 546 146 584 203 584 273 c 3
 584 343 546 401 474 401 c 3
 402 401 364 343 364 273 c 3
 364 203 402 146 474 146 c 3
449 35 m 3
 317 35 234 139.125 234 273 c 3
 234 407.306640625 317 511 449 511 c 3
 544.5546875 511 603 439.705078125 603 351 c 1
 618 227 l 1
 618 120.5546875 552.84375 35 449 35 c 3
748 36 m 3
 635.354492188 36 593 116.942382812 593 189 c 1
 583 189 l 1
 583 247 l 1
 584 247 l 1
 584 301 l 1
 583 301 l 1
 583 358 l 1
 586 358 l 1
 587 501 l 1
 712 501 l 1
 712 195 l 2
 712 155 722 131 760 131 c 3
 817.59765625 131 839 226.483398438 839 309 c 3
 839 478.08203125 708.956054688 637 496 637 c 3
 263.169921875 637 139 454.317382812 139 273 c 3
 139 84.0283203125 266.110351562 -85 526 -85 c 3
 590 -85 677.876953125 -65.654296875 747 -29 c 1
 747 -132 l 1
 692.229492188 -161 600.163085938 -182 512 -182 c 3
 196.779296875 -182 30 31.7783203125 30 267 c 3
 30 514.00390625 193.208007812 735 507 735 c 3
 778.547851562 735 947 532.947265625 947 309 c 0
 947 143.346679688 869.327148438 36 748 36 c 3
EndSplineSet
EndChar

StartChar: AE
Encoding: 198 198 101
Width: 908
VWidth: 0
Flags: HW
LayerCount: 3
Fore
SplineSet
492 412.916992188 m 1
 812 412.916992188 l 1
 780 293 l 1
 490 292.916992188 l 1
 492 412.916992188 l 1
492 122 m 1
 870 122 l 1
 903 0 l 1
 492 0 l 1
 492 122 l 1
492 688 m 1
 882 688 l 1
 850 566 l 1
 492 566 l 1
 492 688 l 1
427 0 m 1
 427 688 l 1
 561 688 l 1
 561 0 l 1
 427 0 l 1
-5 0 m 1
 341 688 l 5
 476 688 l 1
 136 0 l 1
 -5 0 l 1
162 268 m 1
 464 268 l 1
 464 154 l 1
 162 154 l 1
 162 268 l 1
EndSplineSet
EndChar

StartChar: Oslash
Encoding: 216 216 117
Width: 788
VWidth: 0
Flags: HW
LayerCount: 3
Back
Refer: 13 79 N 1 0 0 1 0 0 2
Fore
SplineSet
40 17 m 1
 184.409179688 181 l 1
 175.409179688 181 l 5
 522.225585938 576 l 5
 531.225585938 576 l 1
 670 733 l 1
 745 671 l 1
 612.37109375 521 l 1
 621.37109375 521 l 1
 259.62890625 107 l 1
 250.62890625 107 l 1
 115 -45 l 1
 40 17 l 1
EndSplineSet
Refer: 13 79 N 1 -0 -0 1 0 0 2
EndChar

StartChar: OE
Encoding: 338 338 118
Width: 1120
VWidth: 0
Flags: HW
LayerCount: 3
Fore
SplineSet
388 705 m 3
 612.834797051 705 729 538.087009006 729 346 c 3
 729 151.690561148 612.834797051 -17 388 -17 c 3
 153.944613821 -17 20 151.690561148 20 346 c 3
 20 538.087009006 153.944613821 705 388 705 c 3
394 584 m 3
 237.846144936 584 156 468.033203125 156 344 c 3
 156 219.966636782 237.926790097 104 394 104 c 3
 548.073209903 104 632 219.966636782 632 344 c 3
 632 468.033203125 547.985490605 584 394 584 c 3
693 412.916992188 m 1
 1024 412.916992188 l 1
 992 293 l 1
 691 292.916992188 l 1
 693 412.916992188 l 1
693 122 m 1
 1082 122 l 1
 1115 0 l 1
 693 0 l 1
 693 122 l 1
693 688 m 1
 1094 688 l 1
 1062 566 l 1
 693 566 l 1
 693 688 l 1
632 0 m 1
 632 688 l 1
 763 688 l 1
 763 0 l 1
 632 0 l 1
EndSplineSet
EndChar

StartChar: ae
Encoding: 230 230 131
Width: 816
VWidth: 0
Flags: HW
LayerCount: 3
Fore
SplineSet
385 297 m 1
 724 297 l 1
 724 204 l 1
 385 204 l 1
 385 297 l 1
764 24 m 1
 727.333333333 2 661.585073096 -13 599 -13 c 3
 413.602076125 -13 317 92 317 252 c 3
 317 384 408.107692307 517 569 517 c 3
 710.012875537 517 791 404.453815261 791 269 c 3
 791 247.333333333 790 224.634920635 787 204 c 1
 659 204 l 1
 662 224.64516129 664 247.35483871 664 268 c 3
 664 352 631.559633028 407 558 407 c 3
 483.484375 407 442 350.643312102 442 249 c 3
 442 154.625 492.248937275 98 603 98 c 3
 661.253149257 98 722.451612903 115.354121864 764 141 c 1
 764 24 l 1
317 319 m 1
 317 373 281 402 208 402 c 3
 144 402 91 384 50 361 c 1
 81 481 l 1
 122 501 171 512 231 512 c 3
 368.694835681 512 442 437 442 327 c 1
 317 319 l 1
442 327 m 1
 442 143 l 1
 317 143 l 1
 317 319 l 1
 442 327 l 1
153 157 m 3
 153 123 174 98 224 98 c 3
 282 98 317 133 317 198 c 1
 407 171 l 1
 407 63.7435897436 318.712274268 -7 196 -7 c 3
 83 -7 24 58 24 141 c 3
 24 280 148.976701967 297.269591528 250 306 c 2
 331 313 l 1
 331 226 l 1
 236 217 l 2
 183.001976719 211.979134637 153 196 153 157 c 3
EndSplineSet
EndChar

StartChar: dotlessi
Encoding: 305 305 137
Width: 237
VWidth: 0
Flags: W
HStem: 0 21G<54 183> 483 20G<54 183>
VStem: 54 129<0 503>
LayerCount: 3
Fore
SplineSet
54 0 m 1
 54 503 l 1
 183 503 l 1
 183 0 l 1
 54 0 l 1
EndSplineSet
EndChar

StartChar: oslash
Encoding: 248 248 148
Width: 588
VWidth: 0
Flags: HW
LayerCount: 3
Fore
SplineSet
24 14 m 1
 148.455078125 155 l 1
 145.455078125 155 l 1
 367.305664062 407 l 1
 370.305664062 407 l 1
 493 546 l 1
 564 489 l 1
 451.870117188 362 l 1
 454.870117188 362 l 1
 211.010742188 85 l 1
 208.010742188 85 l 1
 95 -43 l 1
 24 14 l 1
EndSplineSet
Refer: 27 111 N 1 0 0 1 0 0 2
EndChar

StartChar: dieresis
Encoding: 168 168 156
Width: 434
VWidth: 0
Flags: HW
AnchorPoint: "Top" 217 562 mark 0
LayerCount: 3
Fore
SplineSet
252 562 m 5
 252 688 l 5
 384 688 l 5
 384 562 l 5
 252 562 l 5
50 562 m 5
 50 688 l 5
 182 688 l 5
 182 562 l 5
 50 562 l 5
EndSplineSet
EndChar

StartChar: germandbls
Encoding: 223 223 157
Width: 570
VWidth: 0
Flags: HW
LayerCount: 3
Fore
SplineSet
54 514 m 2
 54 687 180.30941704 725 271 725 c 3
 362.368983957 725 464 680 464 576 c 3
 464 513.700871444 439.948991246 491.67311322 405.181640625 460 c 0
 378.64554689 435.825575252 368 423.579307738 368 399 c 3
 368 379 379.970933197 362.938806731 403 352 c 2
 443 333 l 2
 533.525242223 290.000509944 562 243.171356891 562 167 c 3
 562 66.2254216886 492.201171875 -8 360 -8 c 3
 322 -8 272 2 239 20 c 1
 239 134 l 1
 275.84057971 110.666666667 328.043478261 99 363 99 c 3
 410 99 436 124.894793435 436 157 c 3
 436 184.458093024 423.852125693 205.689463956 377 228 c 2
 335 248 l 2
 272.77818854 277.629434029 242 312.456587402 242 375 c 3
 242 429 265.752852806 457.778769305 295 483.958984375 c 0
 323.040324956 509.058927734 338 523.337369201 338 552 c 3
 338 595 303.546666667 612 265 612 c 3
 226 612 183 592 183 519 c 2
 183 0 l 1
 54 0 l 1
 54 514 l 2
EndSplineSet
EndChar

StartChar: grave
Encoding: 96 96 158
Width: 240
VWidth: 0
Flags: HW
AnchorPoint: "Top" 161 522 mark 0
LayerCount: 3
Fore
SplineSet
133 522 m 5
 10 688 l 5
 147 688 l 5
 235 522 l 29
 133 522 l 5
EndSplineSet
EndChar

StartChar: ring
Encoding: 730 730 160
Width: 256
VWidth: 0
Flags: HW
AnchorPoint: "Top" 128 518 mark 0
LayerCount: 3
Fore
SplineSet
82.5 603 m 3
 82.5 580.175186333 97.4573987735 561.5 128 561.5 c 7
 158.542601226 561.5 173.5 580.175186333 173.5 603 c 3
 173.5 625.824813667 158.542601226 644.5 128 644.5 c 3
 97.4573987735 644.5 82.5 625.824813667 82.5 603 c 3
20 603 m 3
 20 655.25 57.1041294643 698 128 698 c 3
 198.895870536 698 236 655.25 236 603 c 3
 236 550.75 198.895870536 508 128 508 c 3
 57.1041294643 508 20 550.75 20 603 c 3
EndSplineSet
EndChar

StartChar: cedilla
Encoding: 184 184 161
Width: 240
VWidth: 0
Flags: HW
AnchorPoint: "Cedilla" 132 0 mark 0
LayerCount: 3
Fore
SplineSet
164 0 m 5
 189 -21.7777777778 207.30859375 -48.3683894406 207.30859375 -84 c 7
 207.30859375 -133.747126437 170 -175 93.30859375 -175 c 7
 59.3235294118 -175 24.3673469388 -165.941176471 6 -153 c 5
 6 -67 l 5
 22.701754386 -76.9473684211 52.0686234042 -85 72.30859375 -85 c 7
 96 -85 107 -74 107 -54 c 7
 107 -41 103 -22.1785714286 92.9755859375 0 c 5
 164 0 l 5
EndSplineSet
EndChar

StartChar: circumflex
Encoding: 710 710 162
Width: 350
VWidth: 0
Flags: HW
AnchorPoint: "Top" 175 522 mark 0
LayerCount: 3
Fore
SplineSet
243 522 m 1
 120 688 l 1
 247 688 l 1
 345 522 l 1
 243 522 l 1
107 522 m 1
 5 522 l 1
 103 688 l 1
 230 688 l 1
 107 522 l 1
EndSplineSet
EndChar

StartChar: tilde
Encoding: 732 732 164
Width: 386
VWidth: 0
Flags: HW
AnchorPoint: "Top" 195 545 mark 0
LayerCount: 3
Fore
SplineSet
15 560 m 1
 15 642.282608696 59 693 132 693 c 3
 169.148797107 693 192.632252255 674.878148601 216.26953125 656.21875 c 0
 236.556093751 640.204425507 248 633 267 633 c 3
 287.655503876 633 302.72 650.492063492 305 691 c 1
 376 678 l 1
 376 595.717391304 329.445771144 545 260 545 c 3
 224.644444444 545 198.874430439 563.100324087 173 583 c 0
 153.073211305 598.325424764 143 606 124 606 c 3
 103.864150432 606 88.8079545454 594.2 87 547 c 1
 15 560 l 1
EndSplineSet
EndChar

StartChar: oe
Encoding: 339 339 165
Width: 923
VWidth: 0
Flags: HW
LayerCount: 3
Fore
SplineSet
490 297 m 1
 831 297 l 1
 831 204 l 1
 490 204 l 1
 490 297 l 1
871 24 m 1
 834 2 767 -13 704 -13 c 3
 519.633802817 -13 424 92 424 252 c 3
 424 394 515.546875 517 676 517 c 3
 817 517 898 404 898 269 c 3
 898 247 897 225 894 204 c 1
 766 204 l 1
 769 225 771 247 771 268 c 3
 771 352 739 407 665 407 c 3
 591 407 549 351 549 249 c 3
 549 155 597 98 710 98 c 3
 768 98 829 115 871 141 c 1
 871 24 l 1
289 518 m 3
 454.213142164 518 549 402 549 252 c 3
 549 101 454.213142164 -15 289 -15 c 3
 120.610351562 -15 24 101 24 252 c 3
 24 402 120.610351562 518 289 518 c 3
289 404 m 3
 200.731445312 404 154 334.092773438 154 252 c 3
 154 169.913085938 200.731445312 99 289 99 c 3
 377.268554688 99 424 169.913085938 424 252 c 3
 424 334.092773438 377.268554688 404 289 404 c 3
EndSplineSet
EndChar

StartChar: cent
Encoding: 162 162 168
Width: 460
VWidth: 0
Flags: HW
LayerCount: 3
Fore
SplineSet
223 -100 m 1
 223 58 l 1
 345 58 l 1
 345 -100 l 1
 223 -100 l 1
223 445 m 1
 223 603 l 1
 345 603 l 1
 345 445 l 1
 223 445 l 1
EndSplineSet
Refer: 42 99 N 1 0 0 1 0 0 2
EndChar

StartChar: yen
Encoding: 165 165 169
Width: 565
VWidth: 0
Flags: HW
LayerCount: 3
Fore
SplineSet
70 186 m 5
 503 186 l 5
 503 101 l 5
 54 101 l 5
 70 186 l 5
70 334 m 5
 503 334 l 5
 503 249 l 5
 54 249 l 5
 70 334 l 5
EndSplineSet
Refer: 22 89 N 1 0 0 1 0 0 2
EndChar

StartChar: Euro
Encoding: 8364 8364 170
Width: 621
VWidth: 0
Flags: HW
LayerCount: 3
Fore
SplineSet
569 551 m 1
 543.270507812 560.239701705 503.872070312 572 450 572 c 3
 347.080442267 572 212 521.241193421 212 347 c 3
 212 176.276826255 334.958904329 111 457 111 c 7
 509.190429688 111 559.75 122.879036458 594 139 c 5
 594 15 l 1
 567.440429688 2.4814453125 514.767578125 -11 449 -11 c 3
 282.361328125 -11 76 72.3076171875 76 343 c 3
 76 629.174804688 308.061523438 697 468 697 c 3
 529.614257812 697 579.084960938 683.737304688 601 676 c 1
 569 551 l 1
24 312 m 1
 507 312 l 1
 485 227 l 1
 8 227 l 1
 24 312 l 1
24 460 m 1
 545 460 l 1
 523 375 l 1
 8 375 l 1
 24 460 l 1
EndSplineSet
EndChar

StartChar: glyph172
Encoding: 163 163 171
Width: 551
VWidth: 0
Flags: HW
LayerCount: 3
Fore
SplineSet
125 122 m 1
 513 122 l 1
 546 0 l 1
 125 0 l 1
 125 122 l 1
-5 412.916992188 m 5
 455 412.916992188 l 1
 423 293 l 1
 -7 292.916992188 l 5
 -5 412.916992188 l 5
60 0 m 1
 60 483 l 2
 60 606.880952381 152 698 294 698 c 3
 382.661582341 698 459 675 516 654 c 1
 484 532 l 1
 415 563 366.989309357 576 294 576 c 3
 226 576 194 538 194 467 c 2
 194 0 l 1
 60 0 l 1
EndSplineSet
EndChar

